
<svg xmlns="http://www.w3.org/2000/svg" width="100" height="100" viewBox="0 0 100 100">
  <defs>
    <pattern id="techPattern" width="100" height="100" patternUnits="userSpaceOnUse">
      <!-- Código/Tags -->
      <path d="M20,15 L15,20 L20,25 L25,20 L20,15" stroke="white" stroke-width="1" fill="none" />
      <path d="M20,55 L15,60 L20,65 L25,60 L20,55" stroke="white" stroke-width="1" fill="none" />
      <path d="M60,15 L55,20 L60,25 L65,20 L60,15" stroke="white" stroke-width="1" fill="none" />
      <path d="M60,55 L55,60 L60,65 L65,60 L60,55" stroke="white" stroke-width="1" fill="none" />
      
      <!-- Círculos -->
      <circle cx="40" cy="40" r="3" stroke="white" stroke-width="1" fill="none" />
      <circle cx="80" cy="80" r="3" stroke="white" stroke-width="1" fill="none" />
      <circle cx="80" cy="40" r="2" stroke="white" stroke-width="1" fill="none" />
      <circle cx="40" cy="80" r="2" stroke="white" stroke-width="1" fill="none" />
      
      <!-- Pontos -->
      <circle cx="10" cy="10" r="1" fill="white" />
      <circle cx="10" cy="90" r="1" fill="white" />
      <circle cx="90" cy="10" r="1" fill="white" />
      <circle cx="90" cy="90" r="1" fill="white" />
      <circle cx="50" cy="50" r="1" fill="white" />
      <circle cx="30" cy="70" r="1" fill="white" />
      <circle cx="70" cy="30" r="1" fill="white" />
      
      <!-- Linhas -->
      <line x1="10" y1="50" x2="20" y2="50" stroke="white" stroke-width="1" />
      <line x1="80" y1="50" x2="90" y2="50" stroke="white" stroke-width="1" />
      <line x1="50" y1="10" x2="50" y2="20" stroke="white" stroke-width="1" />
      <line x1="50" y1="80" x2="50" y2="90" stroke="white" stroke-width="1" />
    </pattern>
  </defs>
  
  <rect width="100" height="100" fill="url(#techPattern)" />
</svg>
